<svg width="73" height="73" viewBox="0 0 73 73" fill="none" xmlns="http://www.w3.org/2000/svg">
<g clip-path="url(#clip0_4_567)">
<ellipse cx="36.5" cy="36.4681" rx="36.5" ry="36.4681" fill="#CD0000"/>
<mask id="mask0_4_567" style="mask-type:alpha" maskUnits="userSpaceOnUse" x="21" y="20" width="32" height="33">
<rect x="21" y="20.1558" width="32" height="32" fill="#D9D9D9"/>
</mask>
<g mask="url(#mask0_4_567)">
<path d="M27.6667 48.1558V38.8224C27.6667 38.0891 27.9279 37.4613 28.4501 36.9391C28.9723 36.4169 29.6001 36.1558 30.3334 36.1558H31.6667V33.4891H30.3334C29.6001 33.4891 28.9723 33.228 28.4501 32.7058C27.9279 32.1835 27.6667 31.5558 27.6667 30.8224V26.8224C27.6667 26.0891 27.9279 25.4613 28.4501 24.9391C28.9723 24.4169 29.6001 24.1558 30.3334 24.1558H43.6667C44.4001 24.1558 45.0279 24.4169 45.5501 24.9391C46.0723 25.4613 46.3334 26.0891 46.3334 26.8224V30.8224C46.3334 31.5558 46.0723 32.1835 45.5501 32.7058C45.0279 33.228 44.4001 33.4891 43.6667 33.4891H42.3334V36.1558H43.6667C44.4001 36.1558 45.0279 36.4169 45.5501 36.9391C46.0723 37.4613 46.3334 38.0891 46.3334 38.8224V48.1558H43.6667V44.1558H30.3334V48.1558H27.6667ZM30.3334 30.8224H43.6667V26.8224H30.3334V30.8224ZM34.3334 36.1558H39.6667V33.4891H34.3334V36.1558ZM30.3334 41.4891H43.6667V38.8224H30.3334V41.4891Z" fill="white"/>
</g>
</g>
<defs>
<clipPath id="clip0_4_567">
<rect width="73" height="72.9363" fill="white"/>
</clipPath>
</defs>
</svg>
