<svg width="73" height="73" viewBox="0 0 73 73" fill="none" xmlns="http://www.w3.org/2000/svg">
<g clip-path="url(#clip0_4_561)">
<ellipse cx="36.5" cy="36.4681" rx="36.5" ry="36.4681" fill="#CD0000"/>
<mask id="mask0_4_561" style="mask-type:alpha" maskUnits="userSpaceOnUse" x="21" y="20" width="32" height="33">
<rect x="21" y="20.1558" width="32" height="32" fill="#D9D9D9"/>
</mask>
<g mask="url(#mask0_4_561)">
<path d="M28.8 42.9557C29.9333 42.0891 31.2 41.4057 32.6 40.9057C34 40.4057 35.4666 40.1557 37 40.1557C38.5333 40.1557 40 40.4057 41.4 40.9057C42.8 41.4057 44.0666 42.0891 45.2 42.9557C45.9777 42.0446 46.5833 41.0113 47.0166 39.8557C47.45 38.7002 47.6666 37.4668 47.6666 36.1557C47.6666 33.2002 46.6277 30.6835 44.55 28.6057C42.4722 26.5279 39.9555 25.4891 37 25.4891C34.0444 25.4891 31.5277 26.5279 29.45 28.6057C27.3722 30.6835 26.3333 33.2002 26.3333 36.1557C26.3333 37.4668 26.55 38.7002 26.9833 39.8557C27.4166 41.0113 28.0222 42.0446 28.8 42.9557ZM37 37.4891C35.6888 37.4891 34.5833 37.0391 33.6833 36.1391C32.7833 35.2391 32.3333 34.1335 32.3333 32.8224C32.3333 31.5113 32.7833 30.4057 33.6833 29.5057C34.5833 28.6057 35.6888 28.1557 37 28.1557C38.3111 28.1557 39.4166 28.6057 40.3166 29.5057C41.2166 30.4057 41.6666 31.5113 41.6666 32.8224C41.6666 34.1335 41.2166 35.2391 40.3166 36.1391C39.4166 37.0391 38.3111 37.4891 37 37.4891ZM37 49.4891C35.1555 49.4891 33.4222 49.1391 31.8 48.4391C30.1777 47.7391 28.7666 46.7891 27.5666 45.5891C26.3666 44.3891 25.4166 42.9779 24.7166 41.3557C24.0166 39.7335 23.6666 38.0002 23.6666 36.1557C23.6666 34.3113 24.0166 32.5779 24.7166 30.9557C25.4166 29.3335 26.3666 27.9224 27.5666 26.7224C28.7666 25.5224 30.1777 24.5724 31.8 23.8724C33.4222 23.1724 35.1555 22.8224 37 22.8224C38.8444 22.8224 40.5777 23.1724 42.2 23.8724C43.8222 24.5724 45.2333 25.5224 46.4333 26.7224C47.6333 27.9224 48.5833 29.3335 49.2833 30.9557C49.9833 32.5779 50.3333 34.3113 50.3333 36.1557C50.3333 38.0002 49.9833 39.7335 49.2833 41.3557C48.5833 42.9779 47.6333 44.3891 46.4333 45.5891C45.2333 46.7891 43.8222 47.7391 42.2 48.4391C40.5777 49.1391 38.8444 49.4891 37 49.4891ZM37 46.8224C38.1777 46.8224 39.2888 46.6502 40.3333 46.3057C41.3777 45.9613 42.3333 45.4668 43.2 44.8224C42.3333 44.1779 41.3777 43.6835 40.3333 43.3391C39.2888 42.9946 38.1777 42.8224 37 42.8224C35.8222 42.8224 34.7111 42.9946 33.6666 43.3391C32.6222 43.6835 31.6666 44.1779 30.8 44.8224C31.6666 45.4668 32.6222 45.9613 33.6666 46.3057C34.7111 46.6502 35.8222 46.8224 37 46.8224ZM37 34.8224C37.5777 34.8224 38.0555 34.6335 38.4333 34.2557C38.8111 33.8779 39 33.4002 39 32.8224C39 32.2446 38.8111 31.7668 38.4333 31.3891C38.0555 31.0113 37.5777 30.8224 37 30.8224C36.4222 30.8224 35.9444 31.0113 35.5666 31.3891C35.1888 31.7668 35 32.2446 35 32.8224C35 33.4002 35.1888 33.8779 35.5666 34.2557C35.9444 34.6335 36.4222 34.8224 37 34.8224Z" fill="white"/>
</g>
</g>
<defs>
<clipPath id="clip0_4_561">
<rect width="73" height="72.9363" fill="white"/>
</clipPath>
</defs>
</svg>
