<svg width="171" height="19" viewBox="0 0 171 19" fill="none" xmlns="http://www.w3.org/2000/svg">
<path d="M18.0846 4.73969C17.4305 5.04897 16.74 5.24227 16.0132 5.35825C16.74 4.89433 17.3215 4.15979 17.5758 3.27062C16.8854 3.69588 16.1222 4.00515 15.2863 4.19845C14.6322 3.46392 13.6873 3 12.6698 3C10.7074 3 9.10835 4.70103 9.10835 6.78866C9.10835 7.09794 9.1447 7.36856 9.21738 7.63918C6.27375 7.48454 3.62084 5.9768 1.84013 3.65722C1.5494 4.23711 1.36769 4.85567 1.36769 5.55155C1.36769 6.86598 1.98549 8.02577 2.9667 8.72165C2.38524 8.68299 1.84013 8.52835 1.33135 8.25773V8.29639C1.33135 10.1521 2.56695 11.6985 4.2023 12.0464C3.91157 12.1237 3.5845 12.1624 3.25743 12.1624C3.03938 12.1624 2.785 12.1237 2.56695 12.0851C3.03938 13.5928 4.34766 14.7139 5.91033 14.7139C4.67474 15.7191 3.14841 16.3376 1.47672 16.3376C1.18599 16.3376 0.895257 16.3376 0.640869 16.299C2.23988 17.3814 4.09328 18 6.12838 18C12.7061 18 16.3039 12.201 16.3039 7.17526C16.3039 7.02062 16.3039 6.82732 16.3039 6.67268C16.9944 6.1701 17.6122 5.51289 18.0846 4.73969Z" fill="#161C2D"/>
<path d="M69.3897 9.5573C69.3889 4.4726 65.3288 0.278485 60.1506 0.0132214C54.9724 -0.252042 50.4888 3.50441 49.9477 8.56134C49.4066 13.6183 52.9975 18.2055 58.119 19V12.3203H55.6444V9.5573H58.119V7.45142C58.119 5.0558 59.5745 3.73253 61.8006 3.73253C62.5317 3.74247 63.261 3.80477 63.9829 3.91892V6.27153H62.7534C62.3291 6.21626 61.9021 6.35325 61.5931 6.64381C61.2841 6.93437 61.1266 7.34697 61.1652 7.76506V9.5573H63.8689L63.4364 12.3203H61.1652V19C65.9023 18.2651 69.3905 14.2603 69.3897 9.5573Z" fill="#FF0000"/>
<path fill-rule="evenodd" clip-rule="evenodd" d="M107.653 1.054C108.638 1.0105 108.952 1 111.46 1C113.968 1 114.282 1.0105 115.268 1.054C116.769 1.12075 118.087 1.47925 119.145 2.5105C120.204 3.54212 120.571 4.82687 120.64 6.28937C120.684 7.24937 120.695 7.55575 120.695 10C120.695 12.4443 120.684 12.7506 120.64 13.7106C120.571 15.1739 120.203 16.4583 119.145 17.4895C118.086 18.5211 116.768 18.8792 115.268 18.946C114.282 18.9895 113.968 19 111.46 19C108.952 19 108.638 18.9895 107.653 18.946C106.151 18.8792 104.833 18.5208 103.775 17.4895C102.716 16.4579 102.349 15.1731 102.281 13.7106C102.236 12.7506 102.225 12.4443 102.225 10C102.225 7.55575 102.236 7.24937 102.281 6.28937C102.349 4.82612 102.717 3.54175 103.775 2.5105C104.834 1.47887 106.152 1.12075 107.653 1.054ZM115.192 2.674C114.218 2.6305 113.926 2.6215 111.46 2.6215C108.994 2.6215 108.702 2.63087 107.728 2.674C106.677 2.72088 105.702 2.926 104.952 3.65725C104.201 4.3885 103.991 5.33913 103.943 6.36325C103.898 7.31238 103.889 7.597 103.889 10C103.889 12.403 103.899 12.6876 103.943 13.6368C103.991 14.6609 104.201 15.6115 104.952 16.3427C105.702 17.074 106.677 17.2791 107.728 17.326C108.702 17.3695 108.994 17.3785 111.46 17.3785C113.926 17.3785 114.218 17.3691 115.192 17.326C116.243 17.2791 117.218 17.074 117.968 16.3427C118.719 15.6115 118.929 14.6609 118.977 13.6368C119.022 12.6876 119.031 12.403 119.031 10C119.031 7.597 119.021 7.31238 118.977 6.36325C118.929 5.33913 118.719 4.3885 117.968 3.65725C117.218 2.926 116.243 2.72088 115.192 2.674Z" fill="#161C2D"/>
<path fill-rule="evenodd" clip-rule="evenodd" d="M107.262 10.4091C107.262 7.92391 109.329 5.90906 111.88 5.90906C114.43 5.90906 116.497 7.92354 116.497 10.4091C116.497 12.8946 114.43 14.9091 111.88 14.9091C109.329 14.9091 107.262 12.8942 107.262 10.4091ZM108.882 10.4091C108.882 12.0223 110.224 13.3302 111.88 13.3302C113.535 13.3302 114.877 12.0223 114.877 10.4091C114.877 8.79586 113.535 7.48793 111.88 7.48793C110.224 7.48793 108.882 8.79586 108.882 10.4091Z" fill="#161C2D"/>
<ellipse cx="116.077" cy="5.49998" rx="1.25931" ry="1.22727" fill="#161C2D"/>
<path fill-rule="evenodd" clip-rule="evenodd" d="M153.274 1H170.204C170.628 1 170.974 1.3375 170.974 1.75V18.25C170.974 18.6625 170.628 19 170.204 19H153.274C152.85 19 152.504 18.6625 152.504 18.25V1.75C152.504 1.3375 152.85 1 153.274 1ZM155.236 16.3375H157.968V7.75H155.236V16.3375ZM156.621 6.5875C155.736 6.5875 155.044 5.9125 155.044 5.05C155.044 4.1875 155.736 3.5125 156.621 3.5125C157.506 3.5125 158.199 4.1875 158.199 5.05C158.199 5.875 157.506 6.5875 156.621 6.5875ZM165.51 16.3375H168.204V11.6125C168.204 9.2875 167.703 7.525 164.933 7.525C163.625 7.525 162.701 8.2375 162.355 8.9125H162.316V7.75H159.7V16.3375H162.432V12.1C162.432 10.975 162.663 9.8875 164.086 9.8875C165.51 9.8875 165.51 11.1625 165.51 12.175V16.3375Z" fill="#161C2D"/>
</svg>
