<svg width="73" height="73" viewBox="0 0 73 73" fill="none" xmlns="http://www.w3.org/2000/svg">
<g clip-path="url(#clip0_4_564)">
<ellipse cx="36.5" cy="36.4681" rx="36.5" ry="36.4681" fill="#CD0000"/>
<mask id="mask0_4_564" style="mask-type:alpha" maskUnits="userSpaceOnUse" x="21" y="20" width="32" height="33">
<rect x="21" y="20.1558" width="32" height="32" fill="#D9D9D9"/>
</mask>
<g mask="url(#mask0_4_564)">
<path d="M33.2667 41.4891L37.0001 38.6891L40.6667 41.4891L39.2667 36.9558L43.0001 34.0225H38.4667L37.0001 29.4891L35.5334 34.0225H31.0001L34.6667 36.9558L33.2667 41.4891ZM26.3334 46.8225C25.6001 46.8225 24.9723 46.5614 24.4501 46.0391C23.9279 45.5169 23.6667 44.8891 23.6667 44.1558V39.6558C23.6667 39.4114 23.7445 39.2002 23.9001 39.0225C24.0556 38.8447 24.2556 38.7336 24.5001 38.6891C25.0334 38.5114 25.4723 38.1891 25.8167 37.7225C26.1612 37.2558 26.3334 36.7336 26.3334 36.1558C26.3334 35.578 26.1612 35.0558 25.8167 34.5891C25.4723 34.1225 25.0334 33.8002 24.5001 33.6225C24.2556 33.578 24.0556 33.4669 23.9001 33.2891C23.7445 33.1114 23.6667 32.9002 23.6667 32.6558V28.1558C23.6667 27.4225 23.9279 26.7947 24.4501 26.2725C24.9723 25.7502 25.6001 25.4891 26.3334 25.4891H47.6667C48.4001 25.4891 49.0279 25.7502 49.5501 26.2725C50.0723 26.7947 50.3334 27.4225 50.3334 28.1558V32.6558C50.3334 32.9002 50.2556 33.1114 50.1001 33.2891C49.9445 33.4669 49.7445 33.578 49.5001 33.6225C48.9667 33.8002 48.5279 34.1225 48.1834 34.5891C47.839 35.0558 47.6667 35.578 47.6667 36.1558C47.6667 36.7336 47.839 37.2558 48.1834 37.7225C48.5279 38.1891 48.9667 38.5114 49.5001 38.6891C49.7445 38.7336 49.9445 38.8447 50.1001 39.0225C50.2556 39.2002 50.3334 39.4114 50.3334 39.6558V44.1558C50.3334 44.8891 50.0723 45.5169 49.5501 46.0391C49.0279 46.5614 48.4001 46.8225 47.6667 46.8225H26.3334ZM26.3334 44.1558H47.6667V40.7558C46.8445 40.2669 46.1945 39.6169 45.7167 38.8058C45.239 37.9947 45.0001 37.1114 45.0001 36.1558C45.0001 35.2002 45.239 34.3169 45.7167 33.5058C46.1945 32.6947 46.8445 32.0447 47.6667 31.5558V28.1558H26.3334V31.5558C27.1556 32.0447 27.8056 32.6947 28.2834 33.5058C28.7612 34.3169 29.0001 35.2002 29.0001 36.1558C29.0001 37.1114 28.7612 37.9947 28.2834 38.8058C27.8056 39.6169 27.1556 40.2669 26.3334 40.7558V44.1558Z" fill="white"/>
</g>
</g>
<defs>
<clipPath id="clip0_4_564">
<rect width="73" height="72.9363" fill="white"/>
</clipPath>
</defs>
</svg>
